<?xml version="1.0" encoding="UTF-8" standalone="no"?>
<svg
   xmlns:dc="http://purl.org/dc/elements/1.1/"
   xmlns:cc="http://creativecommons.org/ns#"
   xmlns:rdf="http://www.w3.org/1999/02/22-rdf-syntax-ns#"
   xmlns:svg="http://www.w3.org/2000/svg"
   xmlns="http://www.w3.org/2000/svg"
   xmlns:sodipodi="http://sodipodi.sourceforge.net/DTD/sodipodi-0.dtd"
   xmlns:inkscape="http://www.inkscape.org/namespaces/inkscape"
   width="150"
   height="199.375"
   version="1.1"
   id="svg22"
   sodipodi:docname="logoV.svg"
   inkscape:version="0.92.3 (2405546, 2018-03-11)">
  <metadata
     id="metadata26">
    <rdf:RDF>
      <cc:Work
         rdf:about="">
        <dc:format>image/svg+xml</dc:format>
        <dc:type
           rdf:resource="http://purl.org/dc/dcmitype/StillImage" />
        <dc:title></dc:title>
      </cc:Work>
    </rdf:RDF>
  </metadata>
  <sodipodi:namedview
     pagecolor="#ffffff"
     bordercolor="#666666"
     borderopacity="1"
     objecttolerance="10"
     gridtolerance="10"
     guidetolerance="10"
     inkscape:pageopacity="0"
     inkscape:pageshadow="2"
     inkscape:window-width="1853"
     inkscape:window-height="1025"
     id="namedview24"
     showgrid="false"
     inkscape:zoom="0.5914787"
     inkscape:cx="414.5911"
     inkscape:cy="199.24998"
     inkscape:window-x="67"
     inkscape:window-y="27"
     inkscape:window-maximized="1"
     inkscape:current-layer="svg22"
     fit-margin-top="0"
     fit-margin-left="0"
     fit-margin-right="0"
     fit-margin-bottom="0" />
  <defs
     id="SvgjsDefs2018" />
  <g
     id="SvgjsG2019"
     featurekey="root"
     style="fill:#ffffff"
     transform="translate(0,-199.375)" />
  <g
     id="SvgjsG2020"
     featurekey="container1"
     transform="scale(0.625)"
     style="fill:#072a65">
    <rect
       width="240"
       rx="10"
       ry="10"
       height="319"
       id="rect4"
       x="0"
       y="0" />
  </g>
  <g
     id="SvgjsG2021"
     featurekey="symbol1"
     transform="matrix(0.57688094,0,0,0.57688094,46.155665,30)"
     style="fill:#ffffff">
    <g
       id="g13">
      <polygon
         points="53.954,52.16 53.954,100 93.337,77.072 93.337,30.328 "
         id="polygon7"
         style="fill:#ffffff" />
      <polygon
         points="6.664,77.072 46.047,100 46.047,52.16 6.664,30.328 "
         id="polygon9"
         style="fill:#ffffff" />
      <polygon
         points="50.105,45.222 89.999,23.144 50.105,0 10.213,23.144 50.079,45.237 "
         id="polygon11"
         style="fill:#ffffff" />
    </g>
  </g>
  <g
     id="SvgjsG2022"
     featurekey="text1"
     transform="matrix(1.9344331,0,0,1.9344331,22.540929,80.032508)"
     style="fill:#ffffff">
    <path
       d="m 12.746,10.441 c 0.18644,0 0.35576,0.15271 0.35576,0.33915 v 12.881 c 0,0.18644 -0.15254,0.33881 -0.33898,0.33881 h -0.72881 c -0.59322,0 -1.1186,-0.37288 -1.7119,-1.0508 l -6.1695,-6.8814 v 7.5763 c 0,0.18644 -0.16949,0.33898 -0.35593,0.33898 l -2.1695,0.01678 c -0.20339,0 -0.35593,-0.15238 -0.35593,-0.35576 v -12.864 c 0,-0.18644 0.15254,-0.33898 0.33898,-0.33898 h 1.2881 c 0.18644,0 0.30508,0.0678 0.49169,0.25424 l 6.8305,7.7966 v -7.7119 c 0,-0.18644 0.13559,-0.33898 0.33898,-0.33898 h 2.1864 z m 11.524981,2.695 -5.7459,1.66e-4 v 2.8983 h 3.0508 c 0.18661,0 0.3561,0.15254 0.3561,0.33898 v 2 c 0,0.20339 -0.15254,0.35593 -0.35593,0.35593 h -3.0508 v 2.5763 h 5.7458 c 0.18644,0 0.35593,0.15254 0.35593,0.33898 v 2 c 0,0.20339 -0.15254,0.35576 -0.35593,0.35576 h -8.2712 c -0.20339,0 -0.35593,-0.15238 -0.35593,-0.35576 v -12.864 c 0,-0.18644 0.13559,-0.33898 0.33898,-0.33898 h 8.2881 c 0.18644,0 0.35593,0.15254 0.35593,0.33898 v 2.0169 c 0,0.20322 -0.15254,0.33881 -0.35593,0.33881 z m 12.711833,-2.695 c 0.18644,0 0.33898,0.13559 0.33898,0.33898 v 2.0169 c 0,0.18644 -0.15254,0.33898 -0.33898,0.33898 h -3.6102 v 10.508 c 0,0.22034 -0.13559,0.35576 -0.32203,0.35576 h -1.678 c -0.55932,0 -0.88136,-0.38983 -0.88136,-0.91525 v -9.9492 h -3.6102 c -0.18644,0 -0.35593,-0.13559 -0.35593,-0.33881 v -2 c 0,-0.20339 0.15254,-0.35593 0.35593,-0.35593 h 10.102 z m 9.08483,13.67764 c 3.7966,0 6.8983,-3.0507 6.8983,-6.9151 0,-3.8136 -3.1017,-6.8814 -6.8983,-6.8814 -3.8305,0 -6.9322,3.0678 -6.9322,6.8814 0,3.8644 3.1017,6.9151 6.9322,6.9151 z m 0,-2.79644 c -2.1695,0 -4.0169,-1.9153 -4.0169,-4.1186 0,-2.1864 1.8475,-4.0847 4.0169,-4.0847 2.1525,0 3.9831,1.8983 3.9831,4.0847 0,2.2034 -1.8305,4.1186 -3.9831,4.1186 z"
       id="path16"
       inkscape:connector-curvature="0" />
  </g>
  <g
     id="SvgjsG2023"
     featurekey="text2"
     transform="matrix(2.5572369,0,0,2.5572369,22.615454,105.10384)"
     style="fill:#ffffff">
    <path
       d="m 8.7119,16.6442 c 1.2712,0.79661 2.068,2.051 2.068,3.4747 0,2.2542 -2,3.8812 -4.0169,3.8812 H 1.2884 c -0.20339,0 -0.35593,-0.15238 -0.35593,-0.35576 v -12.864 c 0,-0.18644 0.13543,-0.33898 0.33881,-0.33898 h 4.9322 c 2.2373,0 3.8136,2 3.8136,3.5932 0,1.0678 -0.42373,1.9659 -1.3051,2.61 z M 5.6442,15.8647 c 1.8814,0 1.9153,-2.7288 0,-2.7288 H 3.8137 v 2.7288 z m 0.4236,5.4407 c 2.1695,0 2.2034,-2.8644 0,-2.8644 H 3.8136 v 2.8644 z m 13.559166,2.81324 c 3.7966,0 6.8983,-3.0507 6.8983,-6.9151 0,-3.8136 -3.1017,-6.8814 -6.8983,-6.8814 -3.8305,0 -6.9322,3.0678 -6.9322,6.8814 0,3.8644 3.1017,6.9151 6.9322,6.9151 z m 0,-2.79644 c -2.1695,0 -4.0169,-1.9153 -4.0169,-4.1186 0,-2.1864 1.8475,-4.0847 4.0169,-4.0847 2.1525,0 3.9831,1.8983 3.9831,4.0847 0,2.2034 -1.8305,4.1186 -3.9831,4.1186 z m 16.084707,-4.1019 4.2712,6.4237 c 0.10153,0.15254 0,0.35576 -0.18644,0.35576 h -2.7966 c -0.20339,0 -0.25424,-0.18644 -0.37288,-0.35593 l -2.5932,-3.9153 -2.5932,3.9153 c -0.10169,0.16949 -0.16949,0.35593 -0.37288,0.35593 h -2.7797 c -0.18644,0 -0.28814,-0.20322 -0.18644,-0.35576 l 4.2712,-6.4237 -4.2712,-6.4407 c -0.11864,-0.18644 -0.0339,-0.33898 0.16949,-0.33898 h 2.7966 c 0.18644,0 0.23729,0.15254 0.35593,0.33898 l 2.6102,3.9322 2.6102,-3.9322 c 0.11864,-0.18644 0.16949,-0.33898 0.3561,-0.33898 h 2.8134 c 0.20339,0 0.28814,0.15254 0.16949,0.33898 z"
       id="path19"
       inkscape:connector-curvature="0" />
  </g>
</svg>
